<svg xmlns="http://www.w3.org/2000/svg" xmlns:xlink="http://www.w3.org/1999/xlink" width="107" height="81" viewBox="0 0 107 81">
    <defs>
        <rect id="a" width="107" height="81" rx="6"/>
    </defs>
    <g fill="none" fill-rule="evenodd">
        <g>
            <mask id="b" fill="#fff">
                <use xlink:href="#a"/>
            </mask>
            <use fill="#FFF" fill-rule="nonzero" xlink:href="#a"/>
            <g fill="#BF75FF" fill-rule="nonzero" mask="url(#b)">
                <path d="M102.68 93.5C98.458 87.167 64.232 45.466 0-31.602-11.57-7.867-17.355 8-17.355 16v68C66.889 96.667 106.9 99.833 102.68 93.5z" opacity=".5"/>
                <path d="M79.082 99.5L-8.516-12-26 81z" opacity=".7"/>
                <path d="M-2 100.5L92.387-14-26-17.937z" opacity=".56"/>
            </g>
        </g>
        <g fill-rule="nonzero" transform="translate(17 17)">
            <circle cx="23.5" cy="23.5" r="25" fill="#BF75FF" stroke="#FFF" stroke-width="3"/>
            <path fill="#FFF" d="M35.96 16.371C35.954 13.955 33.916 12 31.405 12H15.557a4.649 4.649 0 0 0-3.228 1.29A4.301 4.301 0 0 0 11 16.4l.039 11.636c.008 2.417 2.045 4.33 4.557 4.33h4.5l2.129 2.979c.287.397.757.654 1.259.655.502.001.973-.265 1.262-.66l2.154-2.975h4.543c1.211 0 2.372-.421 3.228-1.246.855-.826 1.333-1.924 1.329-3.09l-.04-11.658zM23.158 29.105c-.948 0-1.592-.672-1.592-1.567 0-.913.662-1.567 1.592-1.567.967 0 1.594.654 1.61 1.567 0 .895-.643 1.567-1.61 1.567zm2.306-7.35c-.722.77-.878 1.503-.878 2.349 0 .628-.53 1.138-1.182 1.138h-.487c-.646 0-1.173-.5-1.183-1.12L21.732 24c-.059-.959.273-1.959 1.152-2.973.625-.715 1.133-1.328 1.133-1.967 0-.658-.45-1.096-1.426-1.134-.298 0-.625.048-.941.133-.58.155-1.184-.16-1.363-.714-.18-.558.137-1.152.713-1.336a7.472 7.472 0 0 1 2.255-.343c2.578 0 3.81 1.372 3.81 2.932 0 1.427-.86 2.367-1.602 3.156z"/>
        </g>
    </g>
</svg>
