<?xml version="1.0" encoding="UTF-8"?>
<svg width="17px" height="23px" viewBox="0 0 17 23" version="1.1" xmlns="http://www.w3.org/2000/svg" xmlns:xlink="http://www.w3.org/1999/xlink">
    <!-- Generator: sketchtool 53 (72520) - https://sketchapp.com -->
    <title>D5D77EF9-340F-4C88-B138-FB6BF356544E</title>
    <desc>Created with sketchtool.</desc>
    <g id="Assets" stroke="none" stroke-width="1" fill="none" fill-rule="evenodd">
        <g transform="translate(-182.000000, -432.000000)" fill="#FFFFFF" id="icon_achivements">
            <g transform="translate(182.000000, 432.000000)">
                <path d="M8.5,22.5 C4.35786438,22.5 1,19.1421356 1,15 C1,10.8578644 4.35786438,7.5 8.5,7.5 C12.6421356,7.5 16,10.8578644 16,15 C16,19.1421356 12.6421356,22.5 8.5,22.5 Z M8.49996321,17.3934423 L10.1533466,18.8598392 C10.2707933,18.9640035 10.42788,19.0114747 10.583259,18.9897577 C10.8767507,18.9487369 11.0814663,18.6772203 11.0405042,18.3833082 L10.6893351,15.8635916 L12.2865385,14.6565644 C12.3913566,14.577352 12.4635295,14.462397 12.489389,14.3334695 C12.547746,14.0425198 12.3595297,13.7592831 12.0689962,13.7008426 L9.96459642,13.2775446 L8.98027552,11.2979405 C8.92825711,11.1933243 8.84359805,11.108544 8.73913155,11.0564511 C8.47386239,10.9241729 8.15173993,11.0322914 8.01965091,11.2979405 L7.03533,13.2775446 L4.93093022,13.7008426 C4.80218713,13.7267392 4.68739647,13.7990154 4.60829739,13.9039836 C4.42979513,14.1408646 4.47684574,14.4778065 4.71338788,14.6565644 L6.31059131,15.8635916 L5.8435848,18.3638579 C5.81427386,18.5207832 5.85616047,18.6826351 5.95789284,18.8055497 C6.14699875,19.0340304 6.48525465,19.0657304 6.71340853,18.8763536 L8.49996321,17.3934423 Z M6.65318247,6.10676296 C6.13178207,6.18758582 5.68835346,6.28854456 5.32289666,6.40963919 C4.70922072,6.61298159 4.04094727,6.89202742 3.3180763,7.24677671 C3.27675952,7.26705294 3.23409224,7.28445264 3.19037877,7.29885172 C2.6658198,7.47163979 2.10050834,7.18647313 1.92772028,6.66191417 L0.579734811,2.56963334 C0.433184927,2.12472962 0.490547941,1.63684935 0.736166105,1.23916383 C1.02042807,0.778909324 1.50151001,0.518885498 2,0.500989889 L6.5,0.500494949 C7.05228474,0.500445249 7.50004028,0.948120207 7.50008998,1.50040495 L7.50008999,1.50049494 L7.50000523,5.11855975 C7.50000523,5.61170221 7.14050489,6.03122258 6.65318247,6.10676296 Z M10.3469075,6.10626801 C9.8595851,6.03072763 9.50008475,5.61120726 9.50008475,5.1180648 L9.5,1.5 L9.5,1.49991001 C9.5000497,0.947625258 9.94780524,0.4999503 10.50009,0.5 L15.00009,0.50049494 C15.49858,0.518390549 15.9796619,0.778414375 16.2639239,1.23866888 C16.509542,1.6363544 16.5669051,2.12423467 16.4203552,2.5691384 L15.0723697,6.66141922 C14.8995816,7.18597818 14.3342702,7.47114484 13.8097112,7.29835677 C13.7659977,7.28395769 13.7233305,7.26655799 13.6820137,7.24628176 C12.9591427,6.89153248 12.2908693,6.61248664 11.6771933,6.40914424 C11.3117365,6.28804961 10.8683079,6.18709087 10.3469075,6.10626801 Z" id="Combined-Shape"></path>
            </g>
        </g>
    </g>
</svg>