<?xml version="1.0" encoding="UTF-8"?>
<svg width="58px" height="58px" viewBox="0 0 58 58" version="1.1" xmlns="http://www.w3.org/2000/svg" xmlns:xlink="http://www.w3.org/1999/xlink">
    <!-- Generator: sketchtool 53 (72520) - https://sketchapp.com -->
    <title>AF663690-5A97-4B47-9721-6E69DAE5BCC0</title>
    <desc>Created with sketchtool.</desc>
    <g id="Assets" stroke="none" stroke-width="1" fill="none" fill-rule="evenodd">
        <g transform="translate(-664.000000, -911.000000)" id="img_avatar_empty">
            <g transform="translate(666.000000, 913.000000)">
                <circle id="img_avatar-copy" stroke="#FFFFFF" stroke-width="2" fill="#8396B5" fill-rule="nonzero" cx="27" cy="27" r="28"></circle>
                <path d="M27,52 C13.1928813,52 2,40.8071187 2,27 C2,13.1928813 13.1928813,2 27,2 C40.8071187,2 52,13.1928813 52,27 C52,40.8071187 40.8071187,52 27,52 Z M25.4883715,11 C25.3362547,11 25.1842037,11.0064823 25.0326123,11.0194301 C22.0121066,11.2774193 19.7675533,13.9962601 20.0192621,17.0921308 L20.223928,19.609402 C20.5176145,23.2215731 23.4636994,26 27.0001525,26 C30.5366056,26 33.4826905,23.2215731 33.7763769,19.609402 L33.9810429,17.0921308 C33.9936755,16.9367571 34,16.7809123 34,16.625 C34,13.5183983 31.5429089,11 28.5119335,11 L25.4883715,11 Z M40.3307877,42.185688 L41.9551338,34.9295294 C42.1186191,34.1992199 41.8270978,33.4424888 41.2147415,33.0076187 C36.5373095,29.6859006 31.7893536,28 27,28 C22.2106464,28 17.4626905,29.6859006 12.7852585,33.0076187 C12.1729022,33.4424888 11.8813809,34.1992199 12.0448662,34.9295294 L13.6692599,42.1859007 C17.2764869,45.1908339 21.925687,47 26.9998962,47 C32.0742251,47 36.7235248,45.1907485 40.3307877,42.185688 L40.3307877,42.185688 Z" id="tabbar_icon_me_inactive" fill="#60789D"></path>
            </g>
        </g>
    </g>
</svg>