<svg xmlns="http://www.w3.org/2000/svg" width="25" height="25" viewBox="0 0 25 25">
    <path fill="#3dc3ff" fill-rule="evenodd" d="M12.21 24.42C5.467 24.42 0 18.953 0 12.21 0 5.467 5.467 0 12.21 0c6.743 0 12.21 5.467 12.21 12.21 0 6.743-5.467 12.21-12.21 12.21zm-.26-7.838l6.836-6.625c.29-.28.454-.661.454-1.058s-.164-.78-.454-1.06a1.584 1.584 0 0 0-2.187 0l-5.468 5.296a.4.4 0 0 1-.552 0L8.56 11.18a1.583 1.583 0 0 0-2.187 0 1.467 1.467 0 0 0 0 2.119l3.39 3.284a1.584 1.584 0 0 0 2.188 0z"/>
</svg>
