<svg xmlns="http://www.w3.org/2000/svg" width="48" height="48" viewBox="0 0 48 48">
    <g fill="none" fill-rule="evenodd">
        <circle cx="24" cy="24" r="24" fill="#FD5089" fill-rule="nonzero"/>
        <path fill="#FFF" d="M38.788 28.596h1.67a1.013 1.013 0 0 1 .343 1.965l-16.678 6.02c-.223.08-.466.08-.688 0L6.757 30.56a1.013 1.013 0 0 1 .344-1.965h1.671l1.204-2.115 4.736-8.295c.838-1.463 2.204-1.463 3.044 0 0 0 .713 1.254 1.057 1.855l3.791 7.265-2.094-9.653 2.452-4.301c.847-1.462 2.213-1.462 3.04 0l4.656 8.149 4.003 7.095h.063l-1.07-5.29c.61-.991 1.558-.969 2.153.067.608 1.06 1.596 2.796 2.203 3.844l.778 1.379z"/>
    </g>
</svg>
