<svg xmlns="http://www.w3.org/2000/svg" xmlns:xlink="http://www.w3.org/1999/xlink" width="74" height="74" viewBox="0 0 74 74">
    <defs>
        <circle id="a" cx="37" cy="37" r="37"/>
    </defs>
    <g fill="none" fill-rule="evenodd">
        <mask id="b" fill="#fff">
            <use xlink:href="#a"/>
        </mask>
        <use fill="#EBD3FF" fill-rule="nonzero" xlink:href="#a"/>
        <g fill-rule="nonzero" mask="url(#b)">
            <path fill="#694B4B" d="M36.24 10.963c-22.26 0-19.791 27.377-19.69 47.217.004.749.392 1.424 1.027 1.811 2.466 1.504 9.24 5.02 18.662 5.02 9.423 0 16.197-3.516 18.663-5.02a2.124 2.124 0 0 0 1.026-1.811c.102-19.84 2.57-47.217-19.689-47.217z"/>
            <path fill="#5A4146" d="M34.805 11.02c-20.7 1.173-18.354 27.762-18.254 47.16.003.749.391 1.425 1.026 1.811 2.466 1.504 9.24 5.02 18.662 5.02l5.626-39.825"/>
            <path fill="#694B4B" d="M36.24 10.963c-12.657 0-13.536 15.468-13.536 15.468 7.295-1.245 11.778 1.866 19.16-1.245L36.24 65.011c9.423 0 16.197-3.516 18.663-5.02a2.124 2.124 0 0 0 1.026-1.811c.102-19.84 2.57-47.217-19.689-47.217z"/>
            <path fill="#785550" d="M55.928 58.18c.088-17.048 1.907-39.645-11.701-45.672-.238 1.247-.668 4.729.45 6.989 2.812 5.689 5.625 5.689 8.437 9.956 2.813 15.645-5.373 32.251-8.092 34.512 4.817-1.159 8.27-2.993 9.88-3.974a2.123 2.123 0 0 0 1.026-1.811z"/>
            <path fill="#E6AF78" d="M57.55 62.495l-12.548-5.288a2.845 2.845 0 0 1-1.731-2.626v-3.437H29.208v3.437a2.845 2.845 0 0 1-1.73 2.626L14.93 62.495a4.268 4.268 0 0 0-2.597 3.939v5.69c0 1.57 1.26 2.844 2.813 2.844h42.187c1.553 0 2.813-1.274 2.813-2.845v-5.69a4.268 4.268 0 0 0-2.596-3.938z"/>
            <path fill="#EFF2FA" d="M57.55 62.495l-12.133-5.113-9.178 4.006-9.177-4.006-12.132 5.113a4.268 4.268 0 0 0-2.597 3.939v5.69c0 1.57 1.26 2.844 2.813 2.844h42.187c1.553 0 2.813-1.274 2.813-2.845v-5.69a4.268 4.268 0 0 0-2.596-3.938z"/>
            <path fill="#D29B6E" d="M43.27 51.144H29.209v3.437a2.845 2.845 0 0 1-1.73 2.626l-1.96.826c14.997 3.867 17.753-6.89 17.753-6.89z"/>
            <g fill="#E4EAF6">
                <path d="M19.187 67.997l-5.644-4.541a4.283 4.283 0 0 0-1.21 2.978v5.69c0 1.57 1.26 2.844 2.813 2.844h5.625v-3.639a4.286 4.286 0 0 0-1.584-3.332zM60.146 72.123v-5.69c0-1.129-.446-2.18-1.192-2.96l-5.662 4.524a4.285 4.285 0 0 0-1.584 3.332v3.638h5.625c1.554 0 2.813-1.273 2.813-2.844zM36.45 72.123h-.421c-.66 0-1.196-.541-1.196-1.21v-9.522h2.813v9.523c0 .668-.535 1.209-1.195 1.209z"/>
                <path d="M36.24 61.388l-8.05-6.105a1.117 1.117 0 0 0-1.61.279l-1.59 2.413 4.934 6.987a1.117 1.117 0 0 0 1.618.227l4.697-3.8z"/>
                <path d="M36.24 61.388l8.048-6.105a1.117 1.117 0 0 1 1.611.279l1.59 2.413-4.934 6.987a1.117 1.117 0 0 1-1.618.227l-4.698-3.8z"/>
            </g>
            <path fill="#F0C087" d="M43.27 23.764c-7.03 7.112-20.83 1.422-20.83 12.8l.874 8.382a5.694 5.694 0 0 0 2.87 4.458l8.007 4.5a4.177 4.177 0 0 0 4.097 0l8.007-4.5a5.693 5.693 0 0 0 2.87-4.458l1.008-9.954c.072-.708.087-1.42.063-2.13-.525-3.62-5.56-6.254-6.965-9.098z"/>
            <path fill="#E6AF78" d="M22.44 36.564l.874 8.382a5.694 5.694 0 0 0 2.87 4.458l8.007 4.5a4.158 4.158 0 0 0 2.863.432s-4.037-1.237-6.44-7.815c-.735-2.015-1.757-12.683-.878-13.987 1.737-2.577 11.426-2.844 14.288-7.625a7.994 7.994 0 0 1-.391-.533l-.031-.043a5.424 5.424 0 0 1-.331-.57c-7.032 7.113-20.83 1.423-20.83 12.801z"/>
        </g>
    </g>
</svg>
