<?xml version="1.0" encoding="UTF-8"?>
<svg width="19px" height="23px" viewBox="0 0 19 23" version="1.1" xmlns="http://www.w3.org/2000/svg" xmlns:xlink="http://www.w3.org/1999/xlink">
    <!-- Generator: sketchtool 53 (72520) - https://sketchapp.com -->
    <title>F85C7CA9-04B2-44FE-AF6E-C0B5FAF9FFD0</title>
    <desc>Created with sketchtool.</desc>
    <g id="Assets" stroke="none" stroke-width="1" fill="none" fill-rule="evenodd">
        <g transform="translate(-134.000000, -432.000000)" fill="#FFFFFF" id="icon_home">
            <g transform="translate(134.000000, 432.000000)">
                <path d="M9.5,22.5 C4.25329488,22.5 0,18.2467051 0,13 C0,7.75329488 4.25329488,3.5 9.5,3.5 C14.7467051,3.5 19,7.75329488 19,13 C19,18.2467051 14.7467051,22.5 9.5,22.5 Z M17.3287461,5.20019629 C16.1409142,3.95825531 14.7216046,3.04246239 13.166262,2.49374079 C12.6539552,2.31300005 12.3787843,1.73225573 12.5516505,1.19661202 C12.7245167,0.660968324 13.2799591,0.373262624 13.7922659,0.554003359 C15.6317488,1.20296908 17.3110131,2.2864947 18.7132582,3.75261592 C19.0955806,4.1523542 19.0955806,4.80045801 18.7132582,5.20019629 C18.3309357,5.59993457 17.7110686,5.59993457 17.3287461,5.20019629 Z M9.5,19.5 C10.2906123,19.5 10.9337551,18.9146986 10.9337551,18.1950118 C10.9337551,17.4754052 10.2906123,16.8900236 9.5,16.8900236 C8.70929969,16.8900236 8.06615686,17.4754052 8.06615686,18.1950118 C8.06615686,18.9146986 8.70929969,19.5 9.5,19.5 Z M11.0021633,13.2918301 C11.749195,12.8272912 13,12.0494269 13,10.1856617 C13,8.42927661 11.4296926,7 9.5,7 C7.56995522,7 6,8.42927661 6,10.1856617 C6,10.7444387 6.49937113,11.1986403 7.11284399,11.1986403 C7.72675706,11.1986403 8.22612819,10.7444387 8.22612819,10.1856617 C8.22612819,9.54610932 8.79734115,9.02587699 9.5,9.02587699 C10.2025708,9.02587699 10.7741359,9.54610932 10.7741359,10.1856617 C10.7741359,10.9797933 10.3652714,11.2343001 9.74625195,11.6193457 C9.17257383,11.9758635 8.38706797,12.4644428 8.38706797,13.4442457 L8.38706797,14.913269 C8.38706797,15.4720459 8.8864391,15.9262475 9.5,15.9262475 C10.1134729,15.9262475 10.6131962,15.4720459 10.6131962,14.913269 L10.6131962,13.5497025 C10.6833652,13.4952913 10.8136665,13.4091469 11.0021633,13.2918301 Z M9,0 L10,0 C10.5522847,-1.01453063e-16 11,0.44771525 11,1 C11,1.55228475 10.5522847,2 10,2 L9,2 C8.44771525,2 8,1.55228475 8,1 C8,0.44771525 8.44771525,1.01453063e-16 9,0 Z" id="Combined-Shape"></path>
            </g>
        </g>
    </g>
</svg>