<svg xmlns="http://www.w3.org/2000/svg" xmlns:xlink="http://www.w3.org/1999/xlink" width="107" height="81" viewBox="0 0 107 81">
    <defs>
        <rect id="a" width="107" height="81" rx="6"/>
    </defs>
    <g fill="none" fill-rule="evenodd">
        <g>
            <mask id="b" fill="#fff">
                <use xlink:href="#a"/>
            </mask>
            <use fill="#FFF" fill-rule="nonzero" xlink:href="#a"/>
            <g fill="#50E3C2" fill-rule="nonzero" mask="url(#b)">
                <path d="M-10-8l118.532 94.426L-.712 91.864z" opacity=".3"/>
                <path d="M65.125-5.99L-11 91.438-1.578-15z" opacity=".45"/>
                <path d="M109-15L4.642 111.437-16-10.8z" opacity=".67"/>
            </g>
        </g>
        <g transform="translate(17 17)">
            <circle cx="23.5" cy="23.5" r="25" fill="#50E3C2" fill-rule="nonzero" stroke="#FFF" stroke-width="3"/>
            <path fill="#FFF" d="M37 14.842v17.369c0 1.046-.824 1.894-1.84 1.894h-7.946c-.418 0-.824.224-1.15.493l-1.03.848a2.4 2.4 0 0 1-3.067 0l-1.03-.848c-.327-.27-.733-.493-1.15-.493H11.84c-1.017 0-1.841-.848-1.841-1.894V14.842c0-.523.412-.947.92-.947.509 0 .92.424.92.947v16.105c0 .698.55 1.264 1.228 1.264h7.364c.398 0 .786.21 1.104.456l1.228.947a1.2 1.2 0 0 0 1.472 0l1.228-.947c.318-.246.706-.456 1.104-.456h7.364c.678 0 1.227-.566 1.227-1.264V14.842c0-.523.412-.947.92-.947.509 0 .921.424.921.947zm-12.632-1.846l.434-.444A1.82 1.82 0 0 1 26.103 12h5.988c.678 0 1.227.566 1.227 1.263v15.689c0 .697-.55 1.263-1.227 1.263h-5.988a1.82 1.82 0 0 0-1.301.552l-.434.444c-.48.49-1.257.49-1.736 0l-.434-.444a1.82 1.82 0 0 0-1.301-.552h-5.988c-.678 0-1.227-.566-1.227-1.263V13.263c0-.697.55-1.263 1.227-1.263h5.988c.488 0 .956.199 1.301.552l.434.444c.48.49 1.257.49 1.736 0z"/>
        </g>
    </g>
</svg>
