<?xml version="1.0" encoding="UTF-8"?>
<svg width="17px" height="17px" viewBox="0 0 17 17" version="1.1" xmlns="http://www.w3.org/2000/svg" xmlns:xlink="http://www.w3.org/1999/xlink">
    <!-- Generator: sketchtool 53.2 (72643) - https://sketchapp.com -->
    <title>772926E7-3267-4AEA-BDE4-8E29E214A0D3</title>
    <desc>Created with sketchtool.</desc>
    <g id="Assets" stroke="none" stroke-width="1" fill="none" fill-rule="evenodd">
        <g transform="translate(-713.000000, -461.000000)" fill="#B4BBC3" fill-rule="nonzero" id="icon_logout_grey">
            <path d="M721.471777,476.531592 L721.471777,477.943521 L715.117928,477.943521 C713.95024,477.943521 713,476.993281 713,475.825594 L713,463.117961 C713,461.950273 713.95024,461 715.117928,461 L721.471777,461 L721.471777,462.411996 L715.117928,462.411996 C714.728256,462.411996 714.411963,462.728256 714.411963,463.117961 L714.411963,475.825627 C714.411963,476.215299 714.728223,476.531592 715.117928,476.531592 L721.471777,476.531592 Z M729.789625,468.969115 C729.924463,469.102559 730,469.282586 730,469.471711 C730,469.660902 729.923766,469.84166 729.789625,469.974373 L725.497258,474.210262 C725.360295,474.34583 725.180998,474.413598 725.001668,474.413598 C724.819516,474.413598 724.637363,474.343008 724.499006,474.203223 C724.225811,473.925777 724.227936,473.478896 724.506078,473.204971 L727.573549,470.177742 L719.353816,470.177742 C718.963414,470.177742 718.647852,469.862146 718.647852,469.471744 C718.647852,469.081342 718.963414,468.765779 719.353816,468.765779 L727.573549,468.765779 L724.506078,465.738551 C724.227902,465.464625 724.22508,465.017744 724.499006,464.740299 C724.772932,464.462854 725.22051,464.459301 725.497258,464.733227 L729.789625,468.969115 Z"></path>
        </g>
    </g>
</svg>