<svg xmlns="http://www.w3.org/2000/svg" xmlns:xlink="http://www.w3.org/1999/xlink" width="74" height="74" viewBox="0 0 74 74">
    <defs>
        <circle id="a" cx="37" cy="37" r="37"/>
    </defs>
    <g fill="none" fill-rule="evenodd">
        <mask id="b" fill="#fff">
            <use xlink:href="#a"/>
        </mask>
        <use fill="#A5E4FF" fill-rule="nonzero" xlink:href="#a"/>
        <g fill-rule="nonzero" mask="url(#b)">
            <path fill="#E6AF78" d="M48.053 59.093V50.54H25.947v8.552L37 68.866z"/>
            <path fill="#EFF2FA" d="M65.144 63.093l-15.197-3.557a2.446 2.446 0 0 1-.638-.255L37 66.423l-11.829-7.488c-.306.287-.686.5-1.118.601L8.856 63.093A4.892 4.892 0 0 0 5.07 67.85v9.569a2.45 2.45 0 0 0 2.456 2.443h58.95a2.45 2.45 0 0 0 2.456-2.443V67.85a4.892 4.892 0 0 0-3.787-4.757z"/>
            <path fill="#D29B6E" d="M25.947 50.541v9.023c13.924 4.99 22.106-7.5 22.106-7.5v-1.523H25.947z"/>
            <path fill="#F0C087" d="M21.035 22.443l1.07 23.42a7.319 7.319 0 0 0 2.94 5.532l5.078 3.789a7.395 7.395 0 0 0 4.42 1.466h4.913a7.394 7.394 0 0 0 4.422-1.466l5.078-3.789a7.319 7.319 0 0 0 2.94-5.531l1.07-23.421H21.035z"/>
            <path fill="#E6AF78" d="M33.316 27.33c4.913 0 12.281-1.222 14.029-4.888h-26.31l1.07 23.422a7.319 7.319 0 0 0 2.94 5.531l5.078 3.789a7.395 7.395 0 0 0 4.421 1.466H37c-2.456 0-7.368-4.887-7.368-10.995v-14.66c0-1.222 1.228-3.666 3.684-3.666z"/>
            <g fill="#E4EAF6">
                <path d="M14.085 71.933l-7.958-7.111A4.862 4.862 0 0 0 5.07 67.85v9.569a2.45 2.45 0 0 0 2.456 2.443h8.597v-3.385c0-1.733-.74-3.385-2.037-4.544zM59.915 71.933l7.959-7.111a4.862 4.862 0 0 1 1.057 3.028v9.569a2.45 2.45 0 0 1-2.456 2.443h-8.597v-3.385c0-1.733.74-3.385 2.037-4.544z"/>
            </g>
            <path fill="#5B5D6E" d="M40.07 79.862h-6.14l.768-10.996h4.605z"/>
            <path fill="#515262" d="M40.07 66.423h-6.14v2.3a1.37 1.37 0 0 0 1.373 1.365h3.394a1.37 1.37 0 0 0 1.373-1.366v-2.299z"/>
            <g fill="#E4EAF6">
                <path d="M25.775 56.373L37 66.423s-3.143 1.579-7.023 4.76c-.8.657-2.01.391-2.44-.548l-5.274-11.542 1.668-2.49a1.232 1.232 0 0 1 1.844-.23zM48.226 56.373L37 66.423s3.144 1.579 7.024 4.76c.8.657 2.01.391 2.44-.548l5.274-11.542-1.669-2.49a1.232 1.232 0 0 0-1.843-.23z"/>
            </g>
            <path fill="#785550" d="M44.446 14.349l1.151 8.094c5.256 1.045 6.013 9.25 6.122 11.593a2.4 2.4 0 0 0 .388 1.194l2.006 3.094s-.687-5.115 2.456-8.551c0 0 1.08-20.311-12.123-15.424z"/>
            <path fill="#F0C087" d="M55.344 37.803l-1.386 5.517a1.475 1.475 0 0 1-1.432 1.113 1.474 1.474 0 0 1-1.466-1.287l-.709-5.642a2.535 2.535 0 0 1 2.524-2.845h.001c1.656 0 2.87 1.547 2.468 3.144z"/>
            <path fill="#694B4B" d="M22.212 12.16l1.816 1.234c-8.213 6.032-6.678 16.379-6.678 16.379 2.456 2.443 2.456 8.551 2.456 8.551l2.457-2.443s-.948-7.058 3.684-9.773c4.298-2.52 8.06-1.222 11.897-1.222 10.286 0 13.164-3.856 12.665-8.552-.258-2.43-3.992-7.491-13.509-7.33-3.84.065-11.053 1.222-14.788 3.156z"/>
            <path fill="#5A4146" d="M21.495 23.817S20.19 18.7 24.028 13.394c-8.213 6.032-6.678 16.379-6.678 16.379 2.456 2.443 2.456 8.552 2.456 8.552l2.457-2.444s-.948-7.058 3.684-9.773c4.298-2.52 8.06-1.222 11.897-1.222 1.673 0 3.13-.111 4.43-.302-7.922.264-12.591-5.705-20.779-.767z"/>
            <path fill="#E6AF78" d="M18.656 37.803l1.387 5.517a1.475 1.475 0 0 0 1.432 1.113c.745 0 1.373-.552 1.465-1.287l.71-5.642a2.535 2.535 0 0 0-2.525-2.845c-1.656 0-2.87 1.547-2.469 3.144z"/>
        </g>
    </g>
</svg>
