<svg xmlns="http://www.w3.org/2000/svg" width="17" height="23" viewBox="0 0 17 23">
    <path fill="#3DC3FF" fill-rule="evenodd" d="M16.943 10.382c.103.141.061.339-.088.414l-1.657.921a.285.285 0 0 0-.14.301l.342 1.872a.29.29 0 0 1-.267.338l-1.89.108a.29.29 0 0 0-.258.212l-.5 1.833a.286.286 0 0 1-.384.188l-1.75-.724a.28.28 0 0 0-.323.076l-1.244 1.434a.287.287 0 0 1-.43.004L7.09 15.944a.295.295 0 0 0-.327-.07l-1.741.752a.285.285 0 0 1-.388-.184l-.53-1.829a.286.286 0 0 0-.261-.206l-1.89-.08a.286.286 0 0 1-.272-.334l.314-1.876a.281.281 0 0 0-.145-.3l-1.67-.899a.29.29 0 0 1-.099-.419l1.095-1.551a.291.291 0 0 0-.005-.334L.053 7.077a.29.29 0 0 1 .094-.419l1.656-.921a.285.285 0 0 0 .14-.301l-.341-1.872a.289.289 0 0 1 .267-.338l1.89-.108a.29.29 0 0 0 .257-.212l.5-1.833A.285.285 0 0 1 4.9.885l1.75.724a.28.28 0 0 0 .323-.076L8.218.1a.287.287 0 0 1 .43-.004L9.91 1.51c.084.09.215.117.328.07l1.74-.752a.285.285 0 0 1 .389.184l.524 1.833c.032.118.14.202.262.207l1.89.08c.173.005.3.164.271.334l-.313 1.876a.281.281 0 0 0 .145.3l1.67.899a.29.29 0 0 1 .098.418l-1.094 1.552a.291.291 0 0 0 .004.333l1.118 1.538zm-8.44 3.512c2.83 0 5.137-2.313 5.137-5.162 0-2.845-2.306-5.163-5.137-5.163-2.83 0-5.137 2.318-5.137 5.163 0 2.844 2.306 5.162 5.137 5.162zm4.627 3.338l1.427 4.43a.213.213 0 0 1-.262.267l-1.698-.498a.21.21 0 0 0-.225.075l-1.09 1.406a.21.21 0 0 1-.37-.066l-1.497-4.664c.033-.023.061-.052.094-.08l.931-.856 1.207.367c.136.038.28.061.426.061.407 0 .786-.164 1.057-.442zm-6.56.014l.932.86c.028.03.06.057.093.08l-1.497 4.665a.211.211 0 0 1-.37.066l-1.09-1.406a.207.207 0 0 0-.224-.075l-1.699.498a.212.212 0 0 1-.262-.268l1.427-4.434a1.486 1.486 0 0 0 1.483.381l1.208-.367zm4.979-9.798c.365.028.51.484.229.72l-1.483 1.26.463 1.894c.09.358-.3.64-.608.447l-1.647-1.03-1.647 1.03a.407.407 0 0 1-.608-.447l.463-1.894-1.483-1.26a.41.41 0 0 1 .234-.72l1.937-.14.73-1.806a.406.406 0 0 1 .753 0l.73 1.805 1.937.141z"/>
</svg>
