<svg xmlns="http://www.w3.org/2000/svg" width="48" height="48" viewBox="0 0 48 48">
    <g fill="none" fill-rule="evenodd">
        <circle cx="24" cy="24" r="24" fill="#3DC3FF" fill-rule="nonzero"/>
        <path fill="#FFF" d="M20.406 25.198l4.792-4.792a1.13 1.13 0 0 0 0-1.597l-3.993-3.993a.565.565 0 0 1 0-.798l1.198-1.198c.22-.22.578-.22.798 0l.799.799c.22.22.578.22.799 0l1.197-1.198c.22-.22.578-.22.799 0l.799.798c.22.22.578.22.798 0l.799-.798c.22-.22.578-.22.798 0l5.59 5.59c.22.22.22.578 0 .798l-.798.799a.565.565 0 0 0 0 .798l.798.799c.22.22.22.578 0 .799L34.381 23.2a.565.565 0 0 0 0 .799l.799.799c.22.22.22.578 0 .798l-1.198 1.198a.565.565 0 0 1-.798 0l-3.993-3.993a1.13 1.13 0 0 0-1.597 0l-4.792 4.792a1.13 1.13 0 0 0 0 1.597l3.993 3.993c.22.22.22.578 0 .798l-1.198 1.198a.565.565 0 0 1-.798 0L24 34.381a.565.565 0 0 0-.799 0l-1.197 1.198a.565.565 0 0 1-.799 0l-.4-.399a1.13 1.13 0 0 0-1.596 0l-.4.4a.565.565 0 0 1-.798 0l-5.59-5.59a.565.565 0 0 1 0-.8l.798-.798a.565.565 0 0 0 0-.798l-.798-.799a.565.565 0 0 1 0-.799l1.198-1.197a.565.565 0 0 0 0-.799l-.799-.799a.565.565 0 0 1 0-.798l1.198-1.198c.22-.22.578-.22.798 0l3.993 3.993a1.13 1.13 0 0 0 1.597 0z"/>
    </g>
</svg>
