<?xml version="1.0" encoding="UTF-8"?>
<svg width="107px" height="81px" viewBox="0 0 107 81" version="1.1" xmlns="http://www.w3.org/2000/svg" xmlns:xlink="http://www.w3.org/1999/xlink">
    <!-- Generator: sketchtool 53 (72520) - https://sketchapp.com -->
    <title>B37B4886-94CC-4607-8C5E-0D8F2AF27C28</title>
    <desc>Created with sketchtool.</desc>
    <defs>
        <rect id="path-1" x="0" y="0" width="107" height="81" rx="6"></rect>
    </defs>
    <g id="Assets" stroke="none" stroke-width="1" fill="none" fill-rule="evenodd">
        <g transform="translate(-566.000000, -629.000000)" id="img_cta_practice">
            <g transform="translate(566.000000, 629.000000)">
                <g id="Group-3">
                    <mask id="mask-2" fill="white">
                        <use xlink:href="#path-1"></use>
                    </mask>
                    <use id="Mask" fill="#FFFFFF" fill-rule="nonzero" xlink:href="#path-1"></use>
                    <g mask="url(#mask-2)" fill="#3DC3FF" fill-rule="nonzero">
                        <g transform="translate(-26.000000, -32.000000)">
                            <path d="M128.679688,125.5 C124.458333,119.166667 90.2317708,77.4661458 26,0.3984375 C14.4296875,24.1328125 8.64453125,40 8.64453125,48 C8.64453125,56 8.64453125,78.6666667 8.64453125,116 C92.8893229,128.666667 132.901042,131.833333 128.679688,125.5 Z" id="Path-6" opacity="0.5"></path>
                            <polygon id="Path-7" opacity="0.699999988" points="105.082031 131.5 17.484375 20 6.47618018e-31 113"></polygon>
                            <polygon id="Path-8" opacity="0.560000002" points="24 132.5 118.386719 18 3.40942552e-14 14.0627528"></polygon>
                        </g>
                    </g>
                </g>
                <g id="Group" transform="translate(17.000000, 17.000000)">
                    <circle id="Oval" stroke="#FFFFFF" stroke-width="3" fill="#3DC3FF" fill-rule="nonzero" cx="23.5" cy="23.5" r="25"></circle>
                    <path d="M19.981293,24.6729023 L24.6729023,19.981293 C25.1047531,19.5494423 25.1047531,18.8492739 24.6729023,18.4174232 L20.7632279,14.5077487 C20.5473025,14.2918233 20.5473025,13.9417392 20.7632279,13.7258138 L21.9361302,12.5529115 C22.1520556,12.3369861 22.5021397,12.3369861 22.7180651,12.5529115 L23.5,13.3348464 C23.7159254,13.5507717 24.0660095,13.5507717 24.2819349,13.3348464 L25.4548372,12.161944 C25.6707626,11.9460187 26.0208468,11.9460187 26.2367721,12.161944 L27.018707,12.9438789 C27.2346324,13.1598043 27.5847166,13.1598043 27.8006419,12.9438789 L28.5825768,12.161944 C28.7985022,11.9460187 29.1485864,11.9460187 29.3645117,12.161944 L34.838056,17.6354883 C35.0539813,17.8514136 35.0539813,18.2014978 34.838056,18.4174232 L34.0561211,19.1993581 C33.8401957,19.4152834 33.8401957,19.7653676 34.0561211,19.981293 L34.838056,20.7632279 C35.0539813,20.9791532 35.0539813,21.3292374 34.838056,21.5451628 L33.6651536,22.7180651 C33.4492283,22.9339905 33.4492283,23.2840746 33.6651536,23.5 L34.4470885,24.2819349 C34.6630139,24.4978603 34.6630139,24.8479444 34.4470885,25.0638698 L33.2741862,26.2367721 C33.0582608,26.4526975 32.7081767,26.4526975 32.4922513,26.2367721 L28.5825768,22.3270977 C28.1507261,21.8952469 27.4505577,21.8952469 27.018707,22.3270977 L22.3270977,27.018707 C21.8952469,27.4505577 21.8952469,28.1507261 22.3270977,28.5825768 L26.2367721,32.4922513 C26.4526975,32.7081767 26.4526975,33.0582608 26.2367721,33.2741862 L25.0638698,34.4470885 C24.8479444,34.6630139 24.4978603,34.6630139 24.2819349,34.4470885 L23.5,33.6651536 C23.2840746,33.4492283 22.9339905,33.4492283 22.7180651,33.6651536 L21.5451628,34.838056 C21.3292374,35.0539813 20.9791532,35.0539813 20.7632279,34.838056 L20.3722604,34.4470885 C19.9404097,34.0152378 19.2402413,34.0152378 18.8083906,34.4470885 L18.4174232,34.838056 C18.2014978,35.0539813 17.8514136,35.0539813 17.6354883,34.838056 L12.161944,29.3645117 C11.9460187,29.1485864 11.9460187,28.7985022 12.161944,28.5825768 L12.9438789,27.8006419 C13.1598043,27.5847166 13.1598043,27.2346324 12.9438789,27.018707 L12.161944,26.2367721 C11.9460187,26.0208468 11.9460187,25.6707626 12.161944,25.4548372 L13.3348464,24.2819349 C13.5507717,24.0660095 13.5507717,23.7159254 13.3348464,23.5 L12.5529115,22.7180651 C12.3369861,22.5021397 12.3369861,22.1520556 12.5529115,21.9361302 L13.7258138,20.7632279 C13.9417392,20.5473025 14.2918233,20.5473025 14.5077487,20.7632279 L18.4174232,24.6729023 C18.8492739,25.1047531 19.5494423,25.1047531 19.981293,24.6729023 Z" id="Combined-Shape" fill="#FFFFFF"></path>
                </g>
            </g>
        </g>
    </g>
</svg>