<svg xmlns="http://www.w3.org/2000/svg" width="22" height="19" viewBox="0 0 22 19">
    <path fill="#6A7887" fill-rule="evenodd" d="M22 2.25V16a1.5 1.5 0 0 1-1.5 1.5h-6.474c-.34 0-.67.177-.937.39l-.84.672a2 2 0 0 1-2.498 0l-.84-.672c-.266-.213-.597-.39-.937-.39H1.5A1.5 1.5 0 0 1 0 16V2.25a.75.75 0 1 1 1.5 0V15a1 1 0 0 0 1 1h6c.325 0 .64.166.9.361l1 .75a1 1 0 0 0 1.2 0l1-.75c.26-.195.575-.361.9-.361h6a1 1 0 0 0 1-1V2.25a.75.75 0 1 1 1.5 0zM11.707.789l.354-.352c.281-.28.662-.437 1.06-.437H18a1 1 0 0 1 1 1v12.42a1 1 0 0 1-1 1h-4.879c-.398 0-.779.157-1.06.437l-.354.352a1.004 1.004 0 0 1-1.414 0l-.354-.352a1.504 1.504 0 0 0-1.06-.437H4a1 1 0 0 1-1-1V1a1 1 0 0 1 1-1h4.879c.398 0 .779.157 1.06.437l.354.352c.39.388 1.024.388 1.414 0z"/>
</svg>
