<?xml version="1.0" encoding="UTF-8"?>
<svg width="31px" height="25px" viewBox="0 0 31 25" version="1.1" xmlns="http://www.w3.org/2000/svg" xmlns:xlink="http://www.w3.org/1999/xlink">
    <!-- Generator: sketchtool 53 (72520) - https://sketchapp.com -->
    <title>F2053851-98AB-47A5-A680-BF3DB714F6DC</title>
    <desc>Created with sketchtool.</desc>
    <g id="Assets" stroke="none" stroke-width="1" fill="none" fill-rule="evenodd">
        <g transform="translate(-795.000000, -311.000000)" id="icon_readinglist_check_small_grey">
            <g transform="translate(795.000000, 311.000000)">
                <path d="M22,2.25 L22,16 C22,16.8284865 21.3284271,17.5 20.5,17.5 L14.0261716,17.5 C13.6855643,17.5 13.3550986,17.6770765 13.089129,17.8898674 L12.2493901,18.5617067 C11.5189528,19.1460984 10.4810472,19.1460984 9.7506099,18.5617067 L8.91087098,17.8898674 C8.64490141,17.6770765 8.31443565,17.5 7.97382841,17.5 L1.5,17.5 C0.671572875,17.5 0,16.8284865 0,16 L0,2.25 C0,1.83578644 0.335786438,1.5 0.75,1.5 C1.16421356,1.5 1.5,1.83578644 1.5,2.25 L1.5,15 C1.5,15.5523243 1.94771525,16 2.5,16 L8.5,16 C8.82455532,16 9.14035574,16.1663138 9.4,16.361061 L10.4,17.1111148 C10.7555556,17.3778005 11.2444444,17.3778005 11.6,17.1111148 L12.6,16.361061 C12.8596443,16.1663138 13.1754447,16 13.5,16 L19.5,16 C20.0522847,16 20.5,15.5523243 20.5,15 L20.5,2.25 C20.5,1.83578644 20.8357864,1.5 21.25,1.5 C21.6642136,1.5 22,1.83578644 22,2.25 Z M11.7071068,0.788529019 L12.0606602,0.436921638 C12.3419647,0.157165411 12.7234956,3.55271368e-15 13.1213203,3.55271368e-15 L18,3.55271368e-15 C18.5522847,3.55271368e-15 19,0.44771525 19,1 L19,13.4201899 C19,13.9724746 18.5522847,14.4201899 18,14.4201899 L13.1213203,14.4201899 C12.7234956,14.4201899 12.3419647,14.5773553 12.0606602,14.8571115 L11.7071068,15.2087189 C11.3165825,15.5970937 10.6834175,15.5970937 10.2928932,15.2087189 L9.93933983,14.8571115 C9.65803526,14.5773553 9.27650439,14.4201899 8.87867966,14.4201899 L4,14.4201899 C3.44771525,14.4201899 3,13.9724746 3,13.4201899 L3,1 C3,0.44771525 3.44771525,3.55271368e-15 4,3.55271368e-15 L8.87867966,5.32907052e-15 C9.27650439,5.32907052e-15 9.65803526,0.157165411 9.93933983,0.436921638 L10.2928932,0.788529019 C10.6834175,1.17690381 11.3165825,1.17690381 11.7071068,0.788529019 Z" id="Combined-Shape-Copy" fill="#6A7887" opacity="0.400000006"></path>
                <g id="Group-7" transform="translate(11.000000, 5.000000)">
                    <circle id="Oval" fill="#FFFFFF" fill-rule="nonzero" cx="10" cy="10" r="10"></circle>
                    <g id="Questions_Icons/Right" transform="translate(3.000000, 3.000000)" fill="#99D55B">
                        <path d="M7.12250009,14.2450002 C3.18885191,14.2450002 0,11.0561483 0,7.12250009 C0,3.18885191 3.18885191,0 7.12250009,0 C11.0561483,0 14.2450002,3.18885191 14.2450002,7.12250009 C14.2450002,11.0561483 11.0561483,14.2450002 7.12250009,14.2450002 Z M6.97068122,9.6726307 L10.9585389,5.80847203 C11.1279139,5.6443858 11.2233335,5.42244733 11.2233335,5.19083251 C11.2233335,4.9592177 11.1279139,4.73645571 10.9585389,4.57236948 C10.6066128,4.23143247 10.0355831,4.23143247 9.68259444,4.57236948 L6.49337089,7.66221409 C6.40453931,7.74827186 6.26002862,7.74827186 6.17119704,7.66221409 L4.99322235,6.52102215 C4.64129631,6.17987925 4.07005402,6.17987925 3.71727791,6.52102215 C3.36535187,6.86278268 3.36535187,7.4159818 3.71727791,7.75712469 L5.69473678,9.6726307 C6.04666282,10.0135677 6.61790511,10.0135677 6.97068122,9.6726307 Z" id="Combined-Shape"></path>
                    </g>
                </g>
            </g>
        </g>
    </g>
</svg>