<?xml version="1.0" encoding="UTF-8"?>
<svg width="261px" height="295px" viewBox="0 0 261 295" version="1.1" xmlns="http://www.w3.org/2000/svg" xmlns:xlink="http://www.w3.org/1999/xlink">
    <!-- Generator: sketchtool 53.1 (72631) - https://sketchapp.com -->
    <title>C7CA70E4-C7BD-4644-A940-9256A56AD7DC</title>
    <desc>Created with sketchtool.</desc>
    <g id="Assets" stroke="none" stroke-width="1" fill="none" fill-rule="evenodd">
        <g transform="translate(-95.000000, -581.000000)" id="spiderchart">
            <g transform="translate(95.000000, 581.000000)">
                <circle id="Oval" stroke="#FFFFFF" opacity="0.200000003" cx="129" cy="149" r="115"></circle>
                <circle id="Oval-Copy-12" stroke="#FFFFFF" opacity="0.200000003" cx="129" cy="149" r="105"></circle>
                <circle id="Oval-Copy-13" stroke="#FFFFFF" opacity="0.200000003" cx="129" cy="149" r="95"></circle>
                <circle id="Oval-Copy-14" stroke="#FFFFFF" opacity="0.200000003" cx="129" cy="149" r="85"></circle>
                <circle id="Oval-Copy-15" stroke="#FFFFFF" opacity="0.200000003" cx="129" cy="149" r="75"></circle>
                <circle id="Oval-Copy-16" stroke="#FFFFFF" opacity="0.200000003" cx="129" cy="149" r="66"></circle>
                <circle id="Oval-Copy-17" stroke="#FFFFFF" opacity="0.200000003" cx="129" cy="149" r="56"></circle>
                <circle id="Oval-Copy-18" stroke="#FFFFFF" opacity="0.200000003" cx="129" cy="149" r="46"></circle>
                <circle id="Oval-Copy-19" stroke="#FFFFFF" opacity="0.200000003" cx="129" cy="149" r="36"></circle>
                <circle id="Oval-Copy-20" stroke="#FFFFFF" opacity="0.200000003" cx="129" cy="149" r="26"></circle>
                <circle id="Oval-Copy-21" stroke="#FFFFFF" opacity="0.200000003" cx="129" cy="149" r="16"></circle>
                <rect id="Rectangle" fill="#50E3C2" transform="translate(66.469854, 112.000000) rotate(-60.000000) translate(-66.469854, -112.000000) " x="65.9698545" y="39" width="1" height="146"></rect>
                <rect id="Rectangle-Copy-8" fill="#4A90E2" transform="translate(192.469854, 185.000000) rotate(-60.000000) translate(-192.469854, -185.000000) " x="191.969854" y="112" width="1" height="146"></rect>
                <rect id="Rectangle-Copy-4" fill="#BD71FF" transform="translate(66.469854, 185.000000) rotate(60.000000) translate(-66.469854, -185.000000) " x="65.9698545" y="112" width="1" height="146"></rect>
                <rect id="Rectangle-Copy-5" fill="#F5A623" x="129" y="3" width="1" height="146"></rect>
                <rect id="Rectangle-Copy-7" fill="#FF7B8B" x="129" y="148" width="1" height="146"></rect>
                <rect id="Rectangle-Copy-2" fill="#7ED321" transform="translate(192.469854, 112.000000) rotate(60.000000) translate(-192.469854, -112.000000) " x="191.969854" y="39" width="1" height="146"></rect>
                <circle id="Oval" fill="#F5A623" cx="129.5" cy="5.5" r="5.5"></circle>
                <circle id="Oval-Copy-23" fill="#50E3C2" cx="7.5" cy="77.5" r="5.5"></circle>
                <circle id="Oval-Copy-24" fill="#BD71FF" cx="5.5" cy="220.5" r="5.5"></circle>
                <circle id="Oval-Copy-22" fill="#7ED321" cx="250.5" cy="77.5" r="5.5"></circle>
                <circle id="Oval-Copy-25" fill="#4A90E2" cx="255.5" cy="221.5" r="5.5"></circle>
                <circle id="Oval-Copy-26" fill="#FF7B8B" cx="129.5" cy="289.5" r="5.5"></circle>
            </g>
        </g>
    </g>
</svg>