<svg xmlns="http://www.w3.org/2000/svg" width="17" height="17" viewBox="0 0 17 17">
    <path fill="#6A7887" fill-rule="evenodd" d="M16.943 10.112c.103.137.061.33-.088.403l-1.657.898a.275.275 0 0 0-.14.292l.342 1.823a.283.283 0 0 1-.267.33l-1.89.105a.289.289 0 0 0-.258.206l-.5 1.786a.287.287 0 0 1-.384.183l-1.75-.705a.285.285 0 0 0-.323.073l-1.244 1.397a.292.292 0 0 1-.43.005L7.09 15.529a.3.3 0 0 0-.327-.068l-1.741.732a.287.287 0 0 1-.388-.178l-.53-1.782a.284.284 0 0 0-.261-.201l-1.89-.078a.28.28 0 0 1-.272-.325l.314-1.827a.272.272 0 0 0-.145-.293l-1.67-.875a.278.278 0 0 1-.099-.408l1.095-1.51a.277.277 0 0 0-.005-.326L.053 6.893a.278.278 0 0 1 .094-.408l1.656-.898a.275.275 0 0 0 .14-.293l-.341-1.822a.283.283 0 0 1 .267-.33l1.89-.105a.289.289 0 0 0 .257-.206l.5-1.786A.287.287 0 0 1 4.9.862l1.75.705a.285.285 0 0 0 .323-.074L8.218.097a.292.292 0 0 1 .43-.005L9.91 1.471a.3.3 0 0 0 .328.068l1.74-.732a.287.287 0 0 1 .389.178l.524 1.786c.032.115.14.197.262.202l1.89.077c.173.005.3.16.271.326l-.313 1.827a.272.272 0 0 0 .145.293l1.67.875c.15.077.196.27.098.407L15.821 8.29a.278.278 0 0 0 .004.325l1.118 1.498zm-8.44 3.42c2.83 0 5.137-2.252 5.137-5.027 0-2.77-2.306-5.029-5.137-5.029-2.83 0-5.137 2.258-5.137 5.029 0 2.77 2.306 5.028 5.137 5.028zm3.046-6.278c.365.028.51.472.229.7l-1.483 1.228.463 1.846c.09.348-.3.623-.608.435L8.503 10.46l-1.647 1.003c-.309.188-.697-.087-.608-.435l.463-1.846-1.483-1.227c-.276-.229-.131-.673.234-.7l1.937-.138.73-1.759c.135-.33.617-.33.753 0l.73 1.76 1.937.136z"/>
</svg>
