<?xml version="1.0" encoding="UTF-8"?>
<svg width="19px" height="19px" viewBox="0 0 19 19" version="1.1" xmlns="http://www.w3.org/2000/svg" xmlns:xlink="http://www.w3.org/1999/xlink">
    <!-- Generator: sketchtool 53.2 (72643) - https://sketchapp.com -->
    <title>54F5A04F-CBE9-4D88-81F8-CD2CC55E2823</title>
    <desc>Created with sketchtool.</desc>
    <g id="Assets" stroke="none" stroke-width="1" fill="none" fill-rule="evenodd">
        <g transform="translate(-265.000000, -433.000000)" fill="#FFFFFF" id="icon_teamperformance">
            <g transform="translate(265.000000, 433.000000)">
                <path d="M14.4393469,9.06066017 L15.6464537,7.85355339 C15.8417158,7.65829124 16.1582983,7.65829124 16.3535604,7.85355339 L17.5606672,9.06066017 C17.8419718,9.34196474 18.0000071,9.72349561 18.0000071,10.1213203 L18.0000071,18 C18.0000071,18.5522847 17.5522918,19 17.0000071,19 L15.0000071,19 C14.4477223,19 14.0000071,18.5522847 14.0000071,18 L14.0000071,10.1213203 C14.0000071,9.72349561 14.1580423,9.34196474 14.4393469,9.06066017 Z M8.35356045,11.8535534 L9.14645366,12.6464466 C9.34171581,12.8417088 9.6582983,12.8417088 9.85356045,12.6464466 L10.6464537,11.8535534 C10.8417158,11.6582912 11.1582983,11.6582912 11.3535604,11.8535534 C11.4473286,11.9473216 11.5000071,12.0744985 11.5000071,12.2071068 L11.5000071,18 C11.5000071,18.5522847 11.0522918,19 10.5000071,19 L8.50000705,19 C7.9477223,19 7.50000705,18.5522847 7.50000705,18 L7.50000705,12.2071068 C7.50000705,11.9309644 7.72386468,11.7071068 8.00000705,11.7071068 C8.1326153,11.7071068 8.25979226,11.7597852 8.35356045,11.8535534 Z M1.51225014,14.5517873 L4.17075475,12.2255958 C4.37857307,12.0437547 4.69445438,12.0648135 4.8762954,12.2726318 C4.95604793,12.3637776 5.00000705,12.4807725 5.00000705,12.6018841 L5.00000705,18 C5.00000705,18.5522847 4.5522918,19 4.00000705,19 L2.00000705,19 C1.4477223,19 1.00000705,18.5522847 1.00000705,18 L1.00000705,15.6806523 C1.00000705,15.2481085 1.1867277,14.8366194 1.51225014,14.5517873 Z M10.2071138,10.2071068 C9.81658954,10.5976311 9.18342457,10.5976311 8.79290027,10.2071068 L6.46713656,7.88134307 L1.67267985,12.2399401 C1.26402223,12.611447 0.631573907,12.5813304 0.260066981,12.1726728 C-0.111439944,11.7640152 -0.0813233576,11.1315669 0.327334261,10.7600599 L5.82733426,5.76005993 C6.22230882,5.40099214 6.82966544,5.41544482 7.20711384,5.79289322 L9.50000705,8.08578644 L13.5640269,3.57192196 C13.8339448,3.23849392 13.8085726,2.75508969 13.5052329,2.45174999 L12.2302374,1.17675456 C12.0287844,0.975301556 12.0365413,0.64092486 12.2475628,0.429903304 C12.3456742,0.331791986 12.4760553,0.273469625 12.6116963,0.267018369 L18.2066943,0.000913230891 C18.6443071,-0.0199001804 18.999485,0.317581209 19.0000065,0.754699011 C19.0000218,0.767566558 18.999723,0.780447132 18.9991104,0.793329248 L18.7330052,6.38832729 C18.7191296,6.68006911 18.4716452,6.91629075 18.1802333,6.9159431 C18.0447457,6.91578146 17.9169316,6.86344869 17.823269,6.76978613 L16.5482743,5.49479138 C16.2449346,5.19145168 15.7615303,5.16607944 15.4281023,5.43599737 L10.2071138,10.2071068 Z" id="Combined-Shape"></path>
            </g>
        </g>
    </g>
</svg>