<svg xmlns="http://www.w3.org/2000/svg" width="25" height="25" viewBox="0 0 25 25">
    <path fill="#FF485F" fill-rule="evenodd" d="M12.21 24.42C5.467 24.42 0 18.953 0 12.21 0 5.467 5.467 0 12.21 0c6.743 0 12.21 5.467 12.21 12.21 0 6.743-5.467 12.21-12.21 12.21zm2.13-12.21l3.719-3.718a1.506 1.506 0 1 0-2.13-2.13L12.21 10.08 8.491 6.36a1.505 1.505 0 1 0-2.13 2.13l3.72 3.72-3.72 3.717a1.506 1.506 0 1 0 2.13 2.13l3.719-3.717 3.719 3.72c.292.292.68.439 1.065.439a1.504 1.504 0 0 0 1.065-2.572l-3.72-3.717z"/>
</svg>
